<?xml version="1.0" encoding="UTF-8" standalone="no"?>
<!-- Created with Inkscape (http://www.inkscape.org/) -->

<svg
   xmlns:dc="http://purl.org/dc/elements/1.1/"
   xmlns:cc="http://creativecommons.org/ns#"
   xmlns:rdf="http://www.w3.org/1999/02/22-rdf-syntax-ns#"
   xmlns:svg="http://www.w3.org/2000/svg"
   xmlns="http://www.w3.org/2000/svg"
   xmlns:sodipodi="http://sodipodi.sourceforge.net/DTD/sodipodi-0.dtd"
   xmlns:inkscape="http://www.inkscape.org/namespaces/inkscape"
   width="300"
   height="300"
   id="svg2"
   version="1.1"
   inkscape:version="0.47 r22583"
   sodipodi:docname="å‰-seal.svg">
  <defs
     id="defs4">
    <inkscape:perspective
       sodipodi:type="inkscape:persp3d"
       inkscape:vp_x="0 : 526.18109 : 1"
       inkscape:vp_y="0 : 1000 : 0"
       inkscape:vp_z="744.09448 : 526.18109 : 1"
       inkscape:persp3d-origin="372.04724 : 350.78739 : 1"
       id="perspective10" />
    <inkscape:perspective
       id="perspective2824"
       inkscape:persp3d-origin="0.5 : 0.33333333 : 1"
       inkscape:vp_z="1 : 0.5 : 1"
       inkscape:vp_y="0 : 1000 : 0"
       inkscape:vp_x="0 : 0.5 : 1"
       sodipodi:type="inkscape:persp3d" />
    <inkscape:perspective
       id="perspective2897"
       inkscape:persp3d-origin="0.5 : 0.33333333 : 1"
       inkscape:vp_z="1 : 0.5 : 1"
       inkscape:vp_y="0 : 1000 : 0"
       inkscape:vp_x="0 : 0.5 : 1"
       sodipodi:type="inkscape:persp3d" />
    <inkscape:perspective
       id="perspective2913"
       inkscape:persp3d-origin="0.5 : 0.33333333 : 1"
       inkscape:vp_z="1 : 0.5 : 1"
       inkscape:vp_y="0 : 1000 : 0"
       inkscape:vp_x="0 : 0.5 : 1"
       sodipodi:type="inkscape:persp3d" />
    <inkscape:perspective
       id="perspective2951"
       inkscape:persp3d-origin="0.5 : 0.33333333 : 1"
       inkscape:vp_z="1 : 0.5 : 1"
       inkscape:vp_y="0 : 1000 : 0"
       inkscape:vp_x="0 : 0.5 : 1"
       sodipodi:type="inkscape:persp3d" />
    <inkscape:perspective
       id="perspective2990"
       inkscape:persp3d-origin="0.5 : 0.33333333 : 1"
       inkscape:vp_z="1 : 0.5 : 1"
       inkscape:vp_y="0 : 1000 : 0"
       inkscape:vp_x="0 : 0.5 : 1"
       sodipodi:type="inkscape:persp3d" />
    <inkscape:perspective
       id="perspective3027"
       inkscape:persp3d-origin="0.5 : 0.33333333 : 1"
       inkscape:vp_z="1 : 0.5 : 1"
       inkscape:vp_y="0 : 1000 : 0"
       inkscape:vp_x="0 : 0.5 : 1"
       sodipodi:type="inkscape:persp3d" />
    <inkscape:perspective
       id="perspective3066"
       inkscape:persp3d-origin="0.5 : 0.33333333 : 1"
       inkscape:vp_z="1 : 0.5 : 1"
       inkscape:vp_y="0 : 1000 : 0"
       inkscape:vp_x="0 : 0.5 : 1"
       sodipodi:type="inkscape:persp3d" />
  </defs>
  <sodipodi:namedview
     id="base"
     pagecolor="#ffffff"
     bordercolor="#666666"
     borderopacity="1.0"
     inkscape:pageopacity="0.0"
     inkscape:pageshadow="2"
     inkscape:zoom="1.979899"
     inkscape:cx="299.77215"
     inkscape:cy="168.507"
     inkscape:document-units="px"
     inkscape:current-layer="layer1"
     showgrid="false"
     inkscape:window-width="1280"
     inkscape:window-height="950"
     inkscape:window-x="0"
     inkscape:window-y="25"
     inkscape:window-maximized="1" />
  <metadata
     id="metadata7">
    <rdf:RDF>
      <cc:Work
         rdf:about="">
        <dc:format>image/svg+xml</dc:format>
        <dc:type
           rdf:resource="http://purl.org/dc/dcmitype/StillImage" />
        <dc:title></dc:title>
      </cc:Work>
    </rdf:RDF>
  </metadata>
  <g
     inkscape:label="Calque 1"
     inkscape:groupmode="layer"
     id="layer1"
     transform="translate(0,-752.36218)">
    <path
       style="fill:#000000"
       d="m 141.60332,1031.4955 c -9.95255,-12.1859 -17.54697,-26.0946 -28.20861,-37.77517 -12.54933,-16.32976 -28.419949,-30.46402 -37.793494,-49.01023 -6.634395,-15.6253 15.408138,-18.28112 25.925524,-19.1471 36.99379,-2.84513 74.18859,-2.52541 111.26214,-1.84657 12.71971,0.0996 28.78298,2.82734 34.19695,15.95645 -1.48219,12.64172 -11.62581,22.71082 -21.24728,30.27047 -11.6619,6.87254 -14.44467,21.27185 -24.87472,29.72586 -11.51054,11.56349 -21.38685,24.70379 -33.06139,36.05719 -8.31249,7.8348 -19.9306,4.1557 -26.19912,-4.2309 z m 47.64192,-62.82164 c 4.92551,-6.88494 24.07915,-24.09593 4.68908,-21.94076 -25.73103,-1.02149 -51.67902,-2.38062 -77.32932,0.0942 5.84184,14.62006 16.43525,27.19635 25.21887,40.2962 4.22621,5.83859 8.45242,11.67717 12.67863,17.51576 12.33493,-11.24322 23.90976,-23.26303 34.74274,-35.96544 z M 60.685381,885.81324 c -17.195685,-10.13237 3.623389,-22.52442 15.504717,-22.22776 20.010926,-4.71674 41.091132,-2.72864 60.830272,-8.54071 13.0611,-4.96354 10.8849,-20.98008 11.26025,-32.21945 -0.85599,-3.5013 2.6609,-11.57899 -3.58856,-9.43581 -31.44159,1.19791 -62.876635,4.36387 -94.351463,3.28648 -12.85087,2.8336 -26.503681,-14.51781 -14.146639,-23.22423 18.917951,-6.42206 39.0992,-0.13096 58.43075,1.03673 15.904252,0.98141 32.387382,2.36191 47.822442,-2.43525 6.91789,-8.74986 -5.16768,-30.62387 13.75203,-33.22853 12.73374,-2.51184 15.26096,12.73285 14.39709,22.1007 0.891,3.6455 -1.83753,10.91053 1.45944,12.15007 25.33858,0.433 50.82024,-1.24456 76.02887,1.82985 11.77022,-1.32087 23.08791,15.83035 6.27391,18.25471 -25.31281,6.38877 -52.02358,-4.44368 -77.13823,3.78583 -10.6636,7.52696 -6.83403,24.68689 -4.27699,35.71974 8.30969,11.3059 24.48115,8.24967 36.82881,9.35442 12.14449,0.62794 26.35453,-1.21514 36.36149,7.03062 7.77243,15.36184 -15.58678,15.35495 -25.23143,15.20374 -44.7674,0.35717 -89.56209,1.09785 -134.20403,4.73612 -8.63492,-0.0111 -18.221815,1.30137 -26.012729,-3.17727 z"
       id="path3072" />
  </g>
</svg>
